<?xml version="1.0" standalone="no"?>
<!DOCTYPE svg PUBLIC "-//W3C//DTD SVG 20010904//EN"
 "http://www.w3.org/TR/2001/REC-SVG-20010904/DTD/svg10.dtd">
<svg version="1.0" xmlns="http://www.w3.org/2000/svg"
 width="16.000000pt" height="16.000000pt" viewBox="0 0 16.000000 16.000000"
 preserveAspectRatio="xMidYMid meet">
<metadata>
Created by potrace 1.11, written by Peter Selinger 2001-2013
</metadata>
<g transform="translate(0.000000,16.000000) scale(0.003670,-0.003670)"
fill="#000000" stroke="none">
<path d="M2127 4354 c-1 -1 -46 -4 -100 -7 -205 -13 -441 -66 -643 -146 -487
-192 -883 -548 -1129 -1014 -71 -135 -152 -341 -181 -457 -16 -66 -23 -100
-28 -130 -3 -19 -7 -44 -10 -55 -2 -11 -7 -49 -11 -85 -4 -36 -9 -76 -11 -90
-6 -44 -5 -293 1 -365 31 -353 152 -708 340 -1000 96 -150 166 -235 297 -362
209 -204 437 -356 693 -463 81 -33 310 -109 375 -124 14 -3 73 -15 110 -22 8
-2 42 -6 75 -9 33 -4 76 -9 95 -11 46 -6 303 -6 355 0 22 3 65 8 95 12 30 3
64 8 75 10 11 2 36 6 55 9 19 4 53 11 75 17 22 5 47 11 55 13 152 29 421 144
602 255 447 278 788 715 942 1209 32 105 73 296 81 381 3 36 8 75 11 88 6 27
5 315 0 355 -3 15 -7 60 -11 100 -4 40 -11 90 -15 112 -5 22 -11 54 -14 70
-10 58 -65 241 -97 324 -60 157 -196 400 -285 511 -129 159 -251 285 -369 379
-38 31 -72 59 -75 62 -3 3 -34 25 -70 50 -328 222 -672 344 -1060 374 -80 7
-219 12 -223 9z"/>
</g>
</svg>
